<svg xmlns="http://www.w3.org/2000/svg" viewBox="0 0 50 50" xml:space="preserve" width="50" height="50">
  <path style="fill:#231815" d="M5.487 13.742a3.596 3.596 0 0 1-3.116-1.799L.482 8.67a3.597 3.597 0 0 1 0-3.598l1.89-3.273A3.596 3.596 0 0 1 5.487 0h3.779a3.598 3.598 0 0 1 3.116 1.799l1.89 3.273a3.601 3.601 0 0 1 0 3.598l-1.89 3.272a3.598 3.598 0 0 1-3.116 1.799H5.487zm35.247 0a3.599 3.599 0 0 1-3.117-1.799l-1.89-3.272a3.601 3.601 0 0 1 0-3.598l1.89-3.273A3.599 3.599 0 0 1 40.734 0h3.779a3.596 3.596 0 0 1 3.116 1.799l1.89 3.273a3.597 3.597 0 0 1 0 3.598l-1.89 3.272a3.596 3.596 0 0 1-3.116 1.799h-3.779z"/>
  <path style="fill:#f1f2f1" d="M23.948 3.865h-7.484a4.54 4.54 0 0 0-3.779 2.023L4.58 18.045a4.541 4.541 0 0 0-.763 2.52v11.453a4.542 4.542 0 0 0 2.107 3.834l6.394 4.063a4.538 4.538 0 0 0 2.435.709h10.105V3.865h-.91z"/>
  <path style="fill:#ddddde" d="M45.42 18.045 37.315 5.888a4.541 4.541 0 0 0-3.78-2.022h-8.678v36.757h10.39a4.537 4.537 0 0 0 2.436-.709l6.394-4.063a4.543 4.543 0 0 0 2.107-3.834V20.565a4.542 4.542 0 0 0-.764-2.52z"/>
  <path style="fill:#dce1e1" d="M25 28.934v-8.862h-3.469c-1.574 0-2.976.922-3.496 2.298l-2.764 7.318a3.195 3.195 0 0 0 .008 2.287l1.585 4.112c.526 1.365 1.922 2.277 3.489 2.277H25v-9.431z"/>
  <path style="fill:#d3d3d3" d="m34.728 29.688-2.763-7.318c-.52-1.376-1.922-2.298-3.496-2.298H25v18.293h4.648c1.565 0 2.961-.912 3.487-2.277l1.584-4.112a3.189 3.189 0 0 0 .008-2.287z"/>
  <path style="fill:#3e3a39" d="M25.79 34.306a3.488 3.488 0 0 0 0-6.975H25v6.975h.79zm-5.067-3.488a3.488 3.488 0 0 0 3.488 3.488H25v-6.975h-.79a3.487 3.487 0 0 0-3.488 3.487z"/>
  <path style="fill:#231815" d="M13.771 13.94a1.703 1.703 0 0 1 1.586-1.081h3.973c.48 0 .938.203 1.262.558a1.708 1.708 0 0 1 .434 1.31l-.771 7.935a1.696 1.696 0 0 1-.376.912l-3.169 3.883a1.704 1.704 0 0 1-1.32.626h-3.416a1.705 1.705 0 0 1-1.475-.852L8.932 24.52a1.702 1.702 0 0 1 .084-1.834l2.858-4.05a1.701 1.701 0 0 0 .194-.36l1.704-4.337zm22.458 0a1.705 1.705 0 0 0-1.586-1.081h-3.974a1.705 1.705 0 0 0-1.261.558 1.706 1.706 0 0 0-.434 1.31l.771 7.935a1.7 1.7 0 0 0 .376.912l3.169 3.883a1.704 1.704 0 0 0 1.32.626h3.416c.609 0 1.171-.325 1.475-.852l1.567-2.712a1.702 1.702 0 0 0-.084-1.834l-2.859-4.05a1.716 1.716 0 0 1-.192-.36l-1.704-4.337z"/>
  <path style="fill:#b5b5b5" d="M20.042 36.477h9.916v1.002h-9.916v-1.002z"/>
</svg>
